<?xml version="1.0" standalone="no"?>
<!DOCTYPE svg PUBLIC "-//W3C//DTD SVG 20010904//EN"
 "http://www.w3.org/TR/2001/REC-SVG-20010904/DTD/svg10.dtd">
<svg version="1.0" xmlns="http://www.w3.org/2000/svg"
 width="404.000000pt" height="404.000000pt" viewBox="0 0 404.000000 404.000000"
 preserveAspectRatio="xMidYMid meet">
<metadata>
Created by potrace 1.11, written by Peter Selinger 2001-2013
</metadata>
<g transform="translate(0.000000,404.000000) scale(0.100000,-0.100000)"
fill="#000000" stroke="none">
<path d="M2717 3031 c-37 -38 -67 -73 -67 -79 0 -12 24 -22 56 -22 24 0 24 -1
24 -100 0 -55 -3 -100 -7 -100 -5 0 -148 70 -320 157 l-311 158 -632 0 -632
-1 -19 -23 c-14 -17 -19 -39 -19 -85 0 -33 5 -68 10 -76 5 -8 67 -44 137 -80
l128 -65 3 -769 2 -769 -25 -42 c-13 -24 -26 -58 -27 -76 -3 -39 -16 -46 -63
-41 -22 3 -37 12 -46 29 l-13 25 -23 -28 c-21 -27 -23 -27 -42 -10 -19 17 -20
17 -40 -1 -18 -17 -36 -19 -168 -18 -81 1 -160 -3 -175 -8 -32 -10 -39 -46
-10 -48 50 -4 3120 -5 3139 -2 25 6 38 32 23 47 -6 6 -48 11 -94 11 -65 0 -87
4 -100 18 -16 15 -19 15 -32 2 -22 -21 -33 -19 -46 10 -14 31 -22 31 -36 0 -6
-14 -20 -25 -29 -26 -64 -2 -295 0 -298 3 -5 5 -6 215 -6 831 l1 417 138 0
c75 0 142 4 148 8 39 26 41 110 4 162 -13 18 -80 58 -192 115 -95 48 -180 94
-188 101 -13 11 -16 38 -15 140 0 74 5 129 10 130 6 1 22 5 38 8 15 4 27 12
27 19 0 17 -118 147 -134 147 -7 0 -42 -31 -79 -69z m128 -21 l39 -40 -41 0
c-37 0 -41 3 -45 28 -4 25 -1 52 6 52 1 0 20 -18 41 -40z m-785 -50 c12 -19
12 -31 0 -50 -8 -13 -87 -15 -595 -15 -322 -1 -589 2 -594 5 -13 9 -19 34 -11
55 8 20 15 20 599 20 515 0 593 -2 601 -15z m359 -150 c154 -77 286 -147 295
-156 16 -16 22 -64 9 -64 -5 1 -138 67 -298 148 -285 144 -290 148 -293 180
-2 17 -1 32 3 32 3 0 131 -63 284 -140z m-191 -933 l2 -857 -22 -1 c-102 -5
-417 -4 -435 2 -18 7 -21 14 -18 54 3 50 -12 75 -45 75 -17 0 -18 23 -18 542
l0 542 -22 18 c-20 16 -45 18 -231 18 -196 0 -210 -1 -229 -20 -20 -20 -20
-33 -20 -560 l0 -540 -28 0 -27 0 0 788 c-1 755 0 787 18 792 10 3 255 5 545
4 l527 0 3 -857z m275 752 c111 -56 208 -107 215 -114 22 -20 19 -85 -3 -101
-25 -18 -64 -18 -71 1 -4 8 -12 15 -20 15 -11 0 -14 -19 -14 -82 0 -89 10
-123 27 -94 6 10 36 23 75 32 76 18 124 57 134 110 7 39 21 51 37 35 7 -7 11
-222 11 -711 l1 -700 -25 -1 c-100 -4 -539 -3 -555 1 -20 5 -20 12 -20 858 0
468 1 852 3 852 2 0 94 -45 205 -101z m520 -125 c83 -42 160 -84 170 -92 19
-16 24 -62 6 -62 -6 0 -83 37 -171 81 -156 80 -184 102 -171 137 3 6 7 12 9
12 2 0 73 -34 157 -76z m-1385 -288 c8 -5 11 -161 10 -536 -2 -472 -4 -530
-17 -531 -20 -1 -320 -1 -343 0 -17 1 -18 33 -18 535 l0 535 38 3 c67 5 319 1
330 -6z m-63 -1150 c0 -19 -4 -38 -8 -42 -5 -5 -334 -9 -479 -5 -25 1 -28 5
-28 34 0 19 3 37 7 40 3 4 120 7 258 7 l251 0 -1 -34z"/>
<path d="M1786 2174 c-14 -13 -16 -52 -16 -273 0 -201 3 -261 14 -276 12 -17
29 -18 170 -18 134 0 159 2 174 17 15 15 17 47 20 268 2 213 0 254 -13 274
-15 24 -18 24 -175 24 -131 0 -161 -3 -174 -16z m155 -56 c6 -83 -2 -98 -51
-98 -42 0 -41 -2 -45 65 -2 48 4 55 51 55 39 0 44 -3 45 -22z m150 15 c5 -28
6 -90 2 -100 -3 -8 -24 -13 -53 -13 -54 0 -60 8 -58 70 1 48 3 50 59 50 27 0
50 -3 50 -7z m-155 -165 c4 -6 7 -32 6 -57 0 -33 -6 -50 -21 -62 -24 -19 -57
-15 -70 10 -9 16 -6 95 5 112 8 13 72 11 80 -3z m157 -1 c7 -17 2 -87 -7 -108
-9 -22 -49 -29 -78 -15 -18 9 -24 21 -26 60 -2 27 -1 55 2 62 7 19 102 19 109
1z m-1 -174 c8 -4 5 -119 -4 -128 -12 -13 -81 -11 -94 2 -14 15 -18 71 -8 110
8 28 68 38 106 16z m-152 -28 c7 -38 -5 -95 -22 -106 -42 -27 -75 2 -72 62 1
24 3 52 3 62 1 15 8 18 43 15 39 -3 43 -6 48 -33z"/>
<path d="M1780 1562 c-45 -7 -52 -21 -48 -89 6 -103 7 -103 228 -103 l186 0
21 38 c24 44 29 110 11 135 -12 16 -33 18 -193 20 -99 1 -191 0 -205 -1z m297
-78 l-1 -44 -156 0 -156 0 2 38 c1 20 2 40 3 44 0 4 70 7 155 6 l154 0 -1 -44z"/>
<path d="M2410 2057 l-25 -13 -3 -195 c-2 -157 0 -198 12 -214 13 -19 27 -20
193 -21 98 0 186 2 195 4 29 7 35 52 34 239 -1 135 -4 185 -14 195 -19 19
-357 23 -392 5z m321 -44 c6 -37 5 -133 -1 -143 -7 -12 -89 -15 -262 -11 l-38
1 0 64 c0 101 -9 96 156 96 79 0 145 -3 145 -7z m2 -210 c3 -10 4 -40 4 -68
-2 -39 -6 -52 -23 -60 -17 -8 -204 -13 -271 -6 -14 1 -19 132 -6 144 3 4 71 7
149 7 127 0 143 -2 147 -17z"/>
<path d="M2402 1551 c-8 -5 -14 -30 -16 -60 -1 -42 3 -59 23 -87 l25 -34 175
2 176 3 14 29 c19 41 25 109 12 135 -11 20 -17 21 -204 21 -106 0 -198 -4
-205 -9z m384 -66 l-1 -45 -145 0 -146 0 2 38 c1 20 2 40 3 45 0 4 65 7 144 7
l143 0 0 -45z"/>
<path d="M1330 2168 c-20 -7 -20 -12 -18 -230 l3 -223 119 -5 c73 -3 128 -1
140 5 20 10 21 20 23 220 2 119 -1 216 -6 225 -8 11 -35 14 -125 15 -63 1
-124 -3 -136 -7z m118 -116 c3 -78 2 -83 -20 -91 -44 -16 -55 1 -56 86 0 42 2
81 5 86 2 4 19 7 36 5 l32 -3 3 -83z m114 76 c11 -30 2 -159 -11 -168 -16 -9
-42 -2 -53 14 -10 14 -10 150 -1 159 11 12 61 8 65 -5z m-117 -298 l0 -85 -29
-3 c-38 -5 -45 9 -45 92 0 76 7 88 49 84 25 -3 25 -5 25 -88z m111 82 c6 -4
10 -41 10 -87 -1 -78 -2 -80 -26 -81 -47 -1 -50 4 -50 85 0 43 3 81 7 84 9 9
45 9 59 -1z"/>
<path d="M1335 1646 c-18 -13 -18 -17 -6 -40 18 -33 28 -33 43 -1 9 21 9 29
-3 40 -13 13 -18 13 -34 1z"/>
<path d="M272 1033 c-6 -10 -24 -17 -47 -18 -20 -1 -43 -9 -51 -17 -13 -13
-13 -16 2 -29 23 -19 145 -19 168 0 16 13 14 17 -16 48 -36 38 -43 40 -56 16z"/>
<path d="M3721 1020 c-40 -29 -42 -33 -27 -49 13 -15 30 -18 86 -16 78 2 111
18 87 43 -8 8 -29 15 -46 16 -17 1 -36 9 -43 19 -13 17 -16 16 -57 -13z"/>
<path d="M26 1003 l-28 -15 23 -24 23 -24 23 22 c28 26 29 34 5 47 -12 6 -26
4 -46 -6z"/>
<path d="M3965 1006 c-15 -11 -14 -14 6 -39 l21 -28 24 22 c17 16 21 26 14 35
-16 18 -47 23 -65 10z"/>
</g>
</svg>
